# File created by Blade
# Date/Time:  Wed Sep 24 19:53:44 2014
# Frame Rate: 120.000 fps
#------------------------------------------------------
:FULLY-SPECIFIED
:DEGREES
1252
root -6.099873 32.824814 -4.449152 9.135636 2.973186 -1.056774
Spine -16.065309 -13.510737 5.379985
Head -11.092349 14.504770 13.248877
LeftShoulder 3.078557 1.480151 35.118103
LeftArm 81.806757 -20.826242 -38.134289
LeftForeArm 16.258120 0.000000 107.968369
LeftHand -13.585835 -0.000000 -10.613385
LeftHandThumb1 -26.253704 0.000000 33.147579
RightShoulder -15.435835 11.543808 -13.976223
RightArm -7.948337 -19.270204 83.181071
RightForeArm -20.917041 0.000000 17.244412
RightHand -6.833777 -0.000000 9.146194
RightHandThumb1 -24.326973 -0.000000 -32.862282
LeftUpLeg -3.464307 7.735128 4.450864
LeftLeg -1.766246 -0.000000 0.000000
LeftFoot -9.807152 4.294359 -18.052077
LeftToeBase 11.454465 -0.000000 -0.000000
RightUpLeg -5.073845 -7.277207 -2.800217
RightLeg 2.242220 -0.000000 -0.000000
RightFoot -7.421980 -5.687307 -13.213548
RightToeBase -0.498132 -0.000000 0.000000
1253
root -6.106575 32.826441 -4.448419 9.091699 2.909853 -1.050654
Spine -16.057332 -13.546236 5.319268
Head -11.039836 14.401452 13.369103
LeftShoulder 3.258533 1.117963 34.973731
LeftArm 81.155503 -20.567435 -40.402981
LeftForeArm 15.182843 -0.000000 107.654471
LeftHand -13.584326 0.000000 -10.497604
LeftHandThumb1 -26.253704 0.000000 33.147579
RightShoulder -15.412143 11.599357 -13.963676
RightArm -7.936248 -19.322045 83.200084
RightForeArm -20.869981 -0.000000 17.274869
RightHand -6.815144 0.000000 9.229339
RightHandThumb1 -24.326973 -0.000000 -32.862282
LeftUpLeg -3.413331 7.799860 4.453057
LeftLeg -1.755021 -0.000000 0.000000
LeftFoot -9.786120 4.295206 -18.052033
LeftToeBase 11.427677 -0.000000 -0.000000
RightUpLeg -5.051194 -7.183374 -2.808071
RightLeg 2.268165 -0.000000 -0.000000
RightFoot -7.418912 -5.717323 -13.200272
RightToeBase -0.464392 -0.000000 0.000000
1254
root -6.112269 32.827969 -4.446153 9.044717 2.865033 -1.046269
Spine -16.057445 -13.584420 5.273380
Head -10.967483 14.306509 13.473147
LeftShoulder 3.440475 0.925583 34.720434
LeftArm 80.699955 -20.508484 -42.777684
LeftForeArm 14.095019 -0.000000 107.238590
LeftHand -13.835134 0.000000 -10.304345
LeftHandThumb1 -26.253704 0.000000 33.147579
RightShoulder -15.395952 11.646668 -13.962635
RightArm -7.924586 -19.378711 83.210282
RightForeArm -20.798593 -0.000000 17.329540
RightHand -6.869047 -0.000000 9.276583
RightHandThumb1 -24.326973 -0.000000 -32.862282
LeftUpLeg -3.359066 7.859270 4.458014
LeftLeg -1.746852 -0.000000 0.000000
LeftFoot -9.773231 4.276722 -18.099434
LeftToeBase 11.438085 -0.000000 -0.000000
RightUpLeg -5.016998 -7.154467 -2.814314
RightLeg 2.289185 -0.000000 -0.000000
RightFoot -7.425608 -5.698012 -13.192251
RightToeBase -0.481076 -0.000000 0.000000
1255
root -6.118019 32.830327 -4.439615 8.962452 2.829158 -1.040693
Spine -16.019067 -13.638992 5.203900
Head -10.898903 14.232738 13.589658
LeftShoulder 3.579521 0.673765 34.444952
LeftArm 80.315672 -20.417583 -45.324404
LeftForeArm 13.270699 -0.000000 106.791756
LeftHand -14.067631 -0.000000 -9.972587
LeftHandThumb1 -26.253704 0.000000 33.147579
RightShoulder -15.372384 11.711449 -13.933408
RightArm -7.927450 -19.444507 83.204715
RightForeArm -20.746908 -0.000000 17.364477
RightHand -6.850210 -0.000000 9.336878
RightHandThumb1 -24.326973 -0.000000 -32.862282
LeftUpLeg -3.251030 7.913192 4.468718
LeftLeg -1.765046 -0.000000 0.000000
LeftFoot -9.742424 4.261389 -18.110705
LeftToeBase 11.506122 -0.000000 -0.000000
RightUpLeg -4.931449 -7.171770 -2.819412
RightLeg 2.290706 -0.000000 -0.000000
RightFoot -7.416959 -5.651341 -13.212951
RightToeBase -0.557534 -0.000000 0.000000
1256
root -6.122194 32.831976 -4.439492 8.923859 2.759467 -1.037867
Spine -16.017843 -13.664202 5.162273
Head -10.834562 14.176538 13.740429
LeftShoulder 3.694101 0.287933 34.140351
LeftArm 79.847838 -20.306430 -48.022689
LeftForeArm 12.471598 0.000000 106.300839
LeftHand -13.683598 -0.000000 -9.135107
LeftHandThumb1 -26.253704 0.000000 33.147579
RightShoulder -15.345213 11.771132 -13.924798
RightArm -7.895024 -19.525632 83.204911
RightForeArm -20.730550 -0.000000 17.367545
RightHand -6.775063 -0.000000 9.251631
RightHandThumb1 -24.326973 -0.000000 -32.862282
LeftUpLeg -3.205518 7.971958 4.468297
LeftLeg -1.754423 -0.000000 0.000000
LeftFoot -9.731190 4.277199 -18.113247
LeftToeBase 11.452329 -0.000000 -0.000000
RightUpLeg -4.920886 -7.133054 -2.822272
RightLeg 2.325793 -0.000000 -0.000000
RightFoot -7.424717 -5.649644 -13.252822
RightToeBase -0.545776 -0.000000 0.000000
1257
root -6.127043 32.834499 -4.438417 8.895017 2.675659 -1.045667
Spine -16.039626 -13.659440 5.133736
Head -10.735207 14.020039 13.899128
LeftShoulder 3.900866 0.296654 33.789986
LeftArm 79.688352 -20.585336 -50.847990
LeftForeArm 12.090649 0.000000 105.812526
LeftHand -13.616355 0.000000 -8.692035
LeftHandThumb1 -26.253704 0.000000 33.147579
RightShoulder -15.335888 11.808645 -13.920264
RightArm -7.835325 -19.598534 83.178507
RightForeArm -20.667447 -0.000000 17.360535
RightHand -6.733012 -0.000000 9.308148
RightHandThumb1 -24.326973 -0.000000 -32.862282
LeftUpLeg -3.161640 8.044918 4.477391
LeftLeg -1.752799 -0.000000 0.000000
LeftFoot -9.723494 4.291964 -18.121267
LeftToeBase 11.499654 -0.000000 -0.000000
RightUpLeg -4.908899 -7.077724 -2.817569
RightLeg 2.333933 -0.000000 -0.000000
RightFoot -7.403742 -5.615083 -13.262604
RightToeBase -0.540080 -0.000000 0.000000
1258
root -6.132853 32.836307 -4.435544 8.847876 2.599679 -1.049013
Spine -16.019754 -13.676387 5.090993
Head -10.701609 13.957882 14.036281
LeftShoulder 4.023643 0.265680 33.415069
LeftArm 79.711610 -20.812864 -53.978917
LeftForeArm 11.944675 0.000000 105.354675
LeftHand -13.768970 -0.000000 -8.512066
LeftHandThumb1 -26.253704 0.000000 33.147579
RightShoulder -15.319934 11.884542 -13.906046
RightArm -7.825550 -19.658460 83.155044
RightForeArm -20.651751 -0.000000 17.407687
RightHand -6.721392 -0.000000 9.371581
RightHandThumb1 -24.326973 -0.000000 -32.862282
LeftUpLeg -3.095141 8.105506 4.489387
LeftLeg -1.757919 -0.000000 0.000000
LeftFoot -9.698943 4.289740 -18.183716
LeftToeBase 11.477145 -0.000000 -0.000000
RightUpLeg -4.872537 -7.070245 -2.814727
RightLeg 2.339099 -0.000000 -0.000000
RightFoot -7.408606 -5.549106 -13.265190
RightToeBase -0.565975 -0.000000 0.000000
1259
root -6.137142 32.837888 -4.434116 8.815325 2.519118 -1.049991
Spine -16.026717 -13.693666 5.051222
Head -10.632492 13.903732 14.198539
LeftShoulder 4.192396 0.113699 33.024911
LeftArm 79.737718 -21.079852 -57.279046
LeftForeArm 11.296406 -0.000000 104.946141
LeftHand -14.005483 -0.000000 -8.354770
LeftHandThumb1 -26.253704 0.000000 33.147579
RightShoulder -15.266908 11.918402 -13.879093
RightArm -7.774612 -19.746818 83.117496
RightForeArm -20.566962 -0.000000 17.432815
RightHand -6.752539 0.000000 9.464578
RightHandThumb1 -24.326973 -0.000000 -32.862282
LeftUpLeg -3.042084 8.127132 4.494011
LeftLeg -1.765898 -0.000000 0.000000
LeftFoot -9.703139 4.362228 -18.127330
LeftToeBase 11.405724 -0.000000 -0.000000
RightUpLeg -4.854408 -7.042142 -2.815454
RightLeg 2.345007 -0.000000 -0.000000
RightFoot -7.401263 -5.516639 -13.318931
RightToeBase -0.550502 -0.000000 0.000000
1260
root -6.141791 32.837761 -4.430546 8.763310 2.448454 -1.030055
Spine -16.002805 -13.728904 4.979570
Head -10.575910 13.822266 14.382441
LeftShoulder 4.347426 -0.120969 32.606144
LeftArm 79.769808 -21.293067 -60.509341
LeftForeArm 10.839764 -0.000000 104.370596
LeftHand -14.284087 -0.000000 -7.591108
LeftHandThumb1 -26.253704 0.000000 33.147579
RightShoulder -15.247683 11.939429 -13.874803
RightArm -7.669094 -19.899760 83.098413
RightForeArm -20.527225 -0.000000 17.410838
RightHand -6.738087 -0.000000 9.537394
RightHandThumb1 -24.326973 -0.000000 -32.862282
LeftUpLeg -2.969377 8.169463 4.482946
LeftLeg -1.769454 -0.000000 0.000000
LeftFoot -9.698348 4.384088 -18.143387
LeftToeBase 11.421748 -0.000000 -0.000000
RightUpLeg -4.803825 -7.039074 -2.838632
RightLeg 2.338134 -0.000000 -0.000000
RightFoot -7.420794 -5.463238 -13.361727
RightToeBase -0.561917 -0.000000 0.000000
1261
root -6.139431 32.837751 -4.438512 8.775919 2.335260 -0.991929
Spine -16.019542 -13.737838 4.922344
Head -10.566723 13.773056 14.517646
LeftShoulder 4.465227 -0.281080 32.222764
LeftArm 79.935942 -21.599881 -63.980249
LeftForeArm 10.291930 -0.000000 103.886739
LeftHand -14.501843 0.000000 -6.878732
LeftHandThumb1 -26.253704 0.000000 33.147579
RightShoulder -15.191763 12.024300 -13.873251
RightArm -7.648076 -19.950348 83.080865
RightForeArm -20.556471 -0.000000 17.455894
RightHand -6.669291 -0.000000 9.477488
RightHandThumb1 -24.326973 -0.000000 -32.862282
LeftUpLeg -2.986399 8.194646 4.423809
LeftLeg -1.743232 -0.000000 0.000000
LeftFoot -9.721295 4.474154 -18.149769
LeftToeBase 11.398178 -0.000000 -0.000000
RightUpLeg -4.867522 -6.970536 -2.895849
RightLeg 2.388090 -0.000000 -0.000000
RightFoot -7.469843 -5.415216 -13.345092
RightToeBase -0.573855 -0.000000 0.000000
1262
root -6.142977 32.838618 -4.440092 8.766753 2.222611 -0.986340
Spine -16.042704 -13.714830 4.869722
Head -10.520884 13.676638 14.667655
LeftShoulder 4.649079 -0.572232 31.870927
LeftArm 80.044672 -21.897169 -67.624623
LeftForeArm 9.452576 -0.000000 103.427634
LeftHand -14.638430 0.000000 -5.835406
LeftHandThumb1 -26.253704 0.000000 33.147579
RightShoulder -15.143622 12.035384 -13.864916
RightArm -7.576562 -20.012939 83.046929
RightForeArm -20.540086 0.000000 17.466041
RightHand -6.575333 -0.000000 9.529997
RightHandThumb1 -24.326973 -0.000000 -32.862282
LeftUpLeg -2.963483 8.257033 4.413712
LeftLeg -1.738024 -0.000000 0.000000
LeftFoot -9.730771 4.523621 -18.143654
LeftToeBase 11.432531 -0.000000 -0.000000
RightUpLeg -4.881749 -6.899700 -2.906643
RightLeg 2.393101 -0.000000 -0.000000
RightFoot -7.465849 -5.386509 -13.377489
RightToeBase -0.553607 -0.000000 0.000000
